<svg width="20" height="18" viewBox="0 0 20 18" fill="none" xmlns="http://www.w3.org/2000/svg">
<path d="M4.4707 2.001C4.47043 2.53144 4.25946 3.04004 3.8842 3.41492C3.50894 3.78981 3.00013 4.00027 2.4697 4C1.93926 3.99974 1.43066 3.78877 1.05578 3.41351C0.680893 3.03825 0.470433 2.52944 0.470703 1.999C0.470963 1.46857 0.681933 0.95997 1.05719 0.58508C1.43245 0.2102 1.94126 -0.000259759 2.4717 2.40615e-07C3.00213 0.000270241 3.51073 0.21124 3.88562 0.5865C4.2605 0.96176 4.47096 1.47057 4.4707 2.001ZM4.5307 5.481H0.530703V18.001H4.5307V5.481ZM10.8507 5.481H6.8707V18.001H10.8107V11.431C10.8107 7.77098 15.5807 7.43098 15.5807 11.431V18.001H19.5307V10.071C19.5307 3.901 12.4707 4.131 10.8107 7.16098L10.8507 5.481Z" fill="#090909"/>
</svg>
