<svg width="650" height="817" viewBox="0 0 650 817" fill="none" xmlns="http://www.w3.org/2000/svg">
    <path
        d="M781.176 452.44L738.184 409.432L781.176 366.424C800.363 347.602 813.392 323.401 818.544 297.017C823.696 270.633 820.727 243.306 810.031 218.645C799.335 193.984 781.414 173.147 758.634 158.886C735.854 144.626 709.286 137.612 682.438 138.77C682.438 137.193 682.438 135.616 682.438 134.039C682.427 107.752 674.632 82.0579 660.036 60.1991C645.44 38.3402 624.698 21.2969 600.428 11.2203C576.158 1.14369 549.448 -1.51445 523.669 3.58139C497.89 8.67722 474.198 21.2986 455.584 39.8524L412.592 82.8601L369.6 39.8524C357.245 27.4366 342.567 17.5766 326.403 10.8356C310.239 4.09455 292.906 0.604431 275.393 0.564495C240.025 0.48384 206.074 14.4614 181.008 39.4223C155.943 64.3833 141.816 98.2828 141.735 133.664C141.654 169.044 155.627 203.008 180.579 228.083L223.571 271.091L137.157 358.396L136.297 357.536L93.3049 314.528C81.806 302.999 75.3482 287.377 75.3482 271.091C75.3482 254.804 81.806 239.182 93.3049 227.653L43.0043 177.477C18.0812 202.424 4.08084 236.251 4.08084 271.521C4.08084 306.791 18.0812 340.617 43.0043 365.564L82.2703 404.845L39.2783 447.852C26.9161 460.208 17.1092 474.879 10.4182 491.028C3.72715 507.177 0.283203 524.487 0.283203 541.968C0.283203 559.449 3.72715 576.758 10.4182 592.907C17.1092 609.056 26.9161 623.728 39.2783 636.083L180.865 777.722C205.865 802.593 239.689 816.554 274.946 816.554C310.203 816.554 344.027 802.593 369.027 777.722L412.019 734.714L455.011 777.722C479.905 802.74 513.715 816.84 549.002 816.921C584.289 817.001 618.163 803.056 643.172 778.152C668.181 753.248 682.276 719.426 682.356 684.126C682.437 648.826 668.497 614.939 643.602 589.921L600.61 546.914L686.594 460.898L729.586 503.906C740.825 515.398 747.118 530.836 747.118 546.914C747.118 562.991 740.825 578.429 729.586 589.921L780.316 640.67C805.363 615.813 819.521 582.027 819.683 546.733C819.844 511.44 805.994 477.525 781.176 452.44ZM462.749 409.432L549.593 322.7L636.437 409.432L549.593 496.308L462.749 409.432ZM498.862 546.914L412.162 633.789L325.318 546.483L412.162 460.468L498.862 546.914ZM412.162 184.645L498.862 271.521L412.162 358.396L325.318 271.521L412.162 184.645ZM274.731 322.27L360.715 409.002L274.731 495.878L187.887 409.002L233.602 363.271L274.731 322.27ZM730.876 228.083C742.375 239.613 748.832 255.234 748.832 271.521C748.832 287.807 742.375 303.429 730.876 314.959L687.884 357.966L601.9 271.091L644.892 228.083C656.38 216.84 671.812 210.545 687.884 210.545C703.955 210.545 719.387 216.84 730.876 228.083ZM506.171 90.6015C517.696 79.0984 533.312 72.6382 549.593 72.6382C565.873 72.6382 581.489 79.0984 593.015 90.6015C604.479 102.15 610.913 117.764 610.913 134.039C610.913 150.314 604.479 165.929 593.015 177.477L550.023 220.485L462.749 134.039L506.171 90.6015ZM231.309 177.477C219.81 165.948 213.352 150.326 213.352 134.039C213.352 117.753 219.81 102.131 231.309 90.6015C242.828 79.1421 258.414 72.7096 274.659 72.7096C290.905 72.7096 306.49 79.1421 318.01 90.6015L361.001 133.609L275.018 220.342L231.309 177.477ZM71.6656 542.326C71.7826 526.198 78.2136 510.758 89.5789 499.318L132.571 456.311L223.571 547.2L137.157 633.359L89.5789 585.764C83.8866 580.056 79.3746 573.282 76.3009 565.828C73.2272 558.375 71.6521 550.389 71.6656 542.326ZM231.309 727.546L188.317 684.538L275.161 597.663L361.145 684.538L318.153 727.546C306.627 739.049 291.012 745.509 274.731 745.509C258.45 745.509 242.834 739.049 231.309 727.546ZM593.015 727.546C581.471 739.014 565.862 745.45 549.593 745.45C533.324 745.45 517.715 739.014 506.171 727.546L463.179 684.538L520.502 627.195L549.163 598.523L592.155 641.531C603.509 652.91 609.957 668.285 610.118 684.363C610.279 700.44 604.139 715.941 593.015 727.546Z"
        fill="#D4BFFF" fill-opacity="0.3" />
</svg>
