<svg width="496" height="817" viewBox="0 0 496 817" fill="none" xmlns="http://www.w3.org/2000/svg">
    <path
        d="M456.176 452.44L413.184 409.432L456.176 366.424C475.363 347.602 488.392 323.401 493.544 297.017C498.696 270.633 495.727 243.306 485.031 218.645C474.335 193.984 456.414 173.147 433.634 158.886C410.854 144.626 384.286 137.612 357.438 138.77C357.438 137.193 357.438 135.616 357.438 134.039C357.427 107.752 349.632 82.0579 335.036 60.1991C320.44 38.3402 299.698 21.2969 275.428 11.2203C251.158 1.14369 224.448 -1.51445 198.669 3.58139C172.89 8.67722 149.198 21.2986 130.584 39.8524L87.5919 82.8601L44.5999 39.8524C32.245 27.4366 17.5666 17.5766 1.40256 10.8356C-14.7614 4.09455 -32.0945 0.604431 -49.6068 0.564495C-84.9745 0.48384 -118.926 14.4614 -143.992 39.4223C-169.057 64.3833 -183.184 98.2828 -183.265 133.664C-183.346 169.044 -169.373 203.008 -144.421 228.083L-101.429 271.091L-187.843 358.396L-188.703 357.536L-231.695 314.528C-243.194 302.999 -249.652 287.377 -249.652 271.091C-249.652 254.804 -243.194 239.182 -231.695 227.653L-281.996 177.477C-306.919 202.424 -320.919 236.251 -320.919 271.521C-320.919 306.791 -306.919 340.617 -281.996 365.564L-242.73 404.845L-285.722 447.852C-298.084 460.208 -307.891 474.879 -314.582 491.028C-321.273 507.177 -324.717 524.487 -324.717 541.968C-324.717 559.449 -321.273 576.758 -314.582 592.907C-307.891 609.056 -298.084 623.728 -285.722 636.083L-144.135 777.722C-119.135 802.593 -85.3115 816.554 -50.0541 816.554C-14.7967 816.554 19.0273 802.593 44.0266 777.722L87.0186 734.714L130.011 777.722C154.905 802.74 188.715 816.84 224.002 816.921C259.289 817.001 293.163 803.056 318.172 778.152C343.181 753.248 357.276 719.426 357.356 684.126C357.437 648.826 343.497 614.939 318.602 589.921L275.61 546.914L361.594 460.898L404.586 503.906C415.825 515.398 422.118 530.836 422.118 546.914C422.118 562.991 415.825 578.429 404.586 589.921L455.316 640.67C480.363 615.813 494.521 582.027 494.683 546.733C494.844 511.44 480.994 477.525 456.176 452.44ZM137.749 409.432L224.593 322.7L311.437 409.432L224.593 496.308L137.749 409.432ZM173.862 546.914L87.1619 633.789L0.318176 546.483L87.1619 460.468L173.862 546.914ZM87.1619 184.645L173.862 271.521L87.1619 358.396L0.318176 271.521L87.1619 184.645ZM-50.269 322.27L35.7149 409.002L-50.269 495.878L-137.113 409.002L-91.398 363.271L-50.269 322.27ZM405.876 228.083C417.375 239.613 423.832 255.234 423.832 271.521C423.832 287.807 417.375 303.429 405.876 314.959L362.884 357.966L276.9 271.091L319.892 228.083C331.38 216.84 346.812 210.545 362.884 210.545C378.955 210.545 394.387 216.84 405.876 228.083ZM181.171 90.6015C192.696 79.0984 208.312 72.6382 224.593 72.6382C240.873 72.6382 256.489 79.0984 268.015 90.6015C279.479 102.15 285.913 117.764 285.913 134.039C285.913 150.314 279.479 165.929 268.015 177.477L225.023 220.485L137.749 134.039L181.171 90.6015ZM-93.6909 177.477C-105.19 165.948 -111.648 150.326 -111.648 134.039C-111.648 117.753 -105.19 102.131 -93.6909 90.6015C-82.1715 79.1421 -66.5863 72.7096 -50.3407 72.7096C-34.0951 72.7096 -18.5099 79.1421 -6.99048 90.6015L36.0015 133.609L-49.9824 220.342L-93.6909 177.477ZM-253.334 542.326C-253.217 526.198 -246.786 510.758 -235.421 499.318L-192.429 456.311L-101.429 547.2L-187.843 633.359L-235.421 585.764C-241.113 580.056 -245.625 573.282 -248.699 565.828C-251.773 558.375 -253.348 550.389 -253.334 542.326ZM-93.6909 727.546L-136.683 684.538L-49.8391 597.663L36.1448 684.538L-6.84717 727.546C-18.3725 739.049 -33.9884 745.509 -50.269 745.509C-66.5497 745.509 -82.1656 739.049 -93.6909 727.546ZM268.015 727.546C256.471 739.014 240.862 745.45 224.593 745.45C208.324 745.45 192.715 739.014 181.171 727.546L138.179 684.538L195.502 627.195L224.163 598.523L267.155 641.531C278.509 652.91 284.957 668.285 285.118 684.363C285.279 700.44 279.139 715.941 268.015 727.546Z"
        fill="#D4BFFF" fill-opacity="0.3" />
</svg>
