<?xml version="1.0" encoding="UTF-8"?>
<svg version="1.1" xmlns="http://www.w3.org/2000/svg" width="720" height="400">
<path d="M0 0 C6.36085716 5.5829106 9.38023653 12.85849286 10.3828125 21.17578125 C10.82317111 33.43242913 7.20614967 42.99069526 -1 52 C-1.52335937 52.60328125 -2.04671875 53.2065625 -2.5859375 53.828125 C-8.464897 60.19460797 -15.90677331 65.45785621 -23.96875 68.640625 C-31.42142695 71.30532445 -31.42142695 71.30532445 -36.6640625 76.89453125 C-37.6594449 80.03479582 -37.6594449 80.03479582 -38.32421875 83.1875 C-39.50746807 88.11200583 -42.27890948 90.62312759 -46.1875 93.75 C-52.05597169 96.35820964 -57.5548281 97.80785114 -63.8125 95.8125 C-70.03273645 93.29816892 -74.03821392 90.56791557 -78 85 C-80.25683055 79.19672143 -81.22559007 73.42099488 -79.1015625 67.4921875 C-78.12843878 65.29058136 -77.10784853 63.13656502 -76 61 C-75.34 61 -74.68 61 -74 61 C-74 60.34 -74 59.68 -74 59 C-73.34 59 -72.68 59 -72 59 C-72 58.34 -72 57.68 -72 57 C-65.364458 52.91658954 -59.7569823 51.92148909 -52 53 C-49.01347092 54.06269133 -46.71983069 55.32625804 -44 57 C-44 57.66 -44 58.32 -44 59 C-37.77236442 58.55665331 -33.55521082 57.11708689 -28.1875 54 C-21.21932953 50.07310984 -21.21932953 50.07310984 -18 49 C-18 48.34 -18 47.68 -18 47 C-16.50390625 45.5625 -16.50390625 45.5625 -14.5625 44 C-11.84811762 41.85474956 -11.84811762 41.85474956 -10 39 C-9.34 39 -8.68 39 -8 39 C-7.814375 38.195625 -7.814375 38.195625 -7.625 37.375 C-7 35 -7 35 -5.9375 32.4375 C-4.28926444 26.39396961 -4.20381453 20.47702146 -6.125 14.5 C-9.34484451 10.20687399 -12.77044456 9.29747309 -17.875 8.0625 C-33.29003532 6.87274895 -49.59443124 15.75623507 -61.02734375 25.30859375 C-61.67832031 25.86675781 -62.32929688 26.42492187 -63 27 C-63.99193359 27.75990234 -63.99193359 27.75990234 -65.00390625 28.53515625 C-74.85110071 36.37822503 -83.7100957 49.41487536 -85.58984375 61.92578125 C-86.28884991 69.14124698 -86.36520572 76.07036218 -84 83 C-83.76925781 83.71800781 -83.53851563 84.43601562 -83.30078125 85.17578125 C-81.99357279 88.95907769 -80.53401159 91.86265232 -78 95 C-78 95.66 -78 96.32 -78 97 C-77.34 97 -76.68 97 -76 97 C-76 97.66 -76 98.32 -76 99 C-75.278125 99.268125 -74.55625 99.53625 -73.8125 99.8125 C-71 101 -71 101 -68.625 102.5 C-58.3671324 108.36163863 -44.33777831 107.15854267 -33.25 104.375 C-25.90652161 102.13594369 -18.89758828 99.36658679 -12 96 C-11.39784668 95.71672852 -10.79569336 95.43345703 -10.17529297 95.14160156 C-2.52785421 91.54397754 -2.52785421 91.54397754 2.3359375 84.99609375 C2.8106595 82.91599466 3.21766121 80.81896773 3.546875 78.7109375 C4.14002997 75.16223448 5.31876689 73.37480647 8 71 C13.07111813 67.49851367 18.0351775 67.27941742 24 68 C28.35645981 69.74258392 31.69073764 72.90550021 34 77 C35.38203621 81.62645047 35.26099341 85.13002196 33.875 89.75 C31.4403941 93.96998356 29.51991152 97.17856874 24.69921875 98.75 C20.87658766 99.5852942 17.53758376 100.03534288 13.61328125 99.77734375 C9.1789069 100.05059709 6.56402339 101.7370957 3.0625 104.25 C-4.35592666 109.40845296 -11.84073639 113.14902985 -20.375 116.125 C-21.0659375 116.37636719 -21.756875 116.62773437 -22.46875 116.88671875 C-31.63380425 120.11647034 -40.36254274 121.33111463 -50.0625 121.25 C-51.4556543 121.26160156 -51.4556543 121.26160156 -52.87695312 121.2734375 C-64.79365462 121.23998711 -74.4491723 118.16312077 -84 111 C-84 110.34 -84 109.68 -84 109 C-84.66 109 -85.32 109 -86 109 C-86 108.34 -86 107.68 -86 107 C-86.66 107 -87.32 107 -88 107 C-88 106.34 -88 105.68 -88 105 C-88.66 105 -89.32 105 -90 105 C-99.80148664 92.09004188 -102.54654061 76.4549033 -100.7265625 60.62109375 C-97.66448786 44.93518309 -89.77256614 33.37104204 -79 22 C-78.319375 21.278125 -77.63875 20.55625 -76.9375 19.8125 C-73.47169756 16.23117081 -73.47169756 16.23117081 -72 15 C-71.34 15 -70.68 15 -70 15 C-70 14.34 -70 13.68 -70 13 C-67.6356915 11.31250895 -65.28491477 9.76494495 -62.8125 8.25 C-62.0894165 7.80333984 -61.36633301 7.35667969 -60.62133789 6.89648438 C-43.56495145 -3.45911192 -18.24195638 -13.6492756 0 0 Z M-63.3125 68.6875 C-65.22678628 71.3107812 -65.92078375 72.7521338 -66 76 C-65.15254366 78.85701707 -65.15254366 78.85701707 -63 81 C-59.63825863 82.25411568 -59.63825863 82.25411568 -56 82 C-52.78170094 80.1809614 -51.36427991 78.9714131 -50.0625 75.5 C-49.99093616 72.63744657 -50.38253527 71.34532386 -52 69 C-56.07513289 66.28324474 -59.21509305 65.69750033 -63.3125 68.6875 Z " fill="#000000" transform="translate(394,87)"/>
<path d="M0 0 C4.95 0 9.9 0 15 0 C15.0225528 9.10959489 15.04091611 18.21917137 15.05181217 27.3287878 C15.05704056 31.55831371 15.0641374 35.7878196 15.07543945 40.01733398 C15.08626991 44.09568543 15.09227717 48.17401757 15.09487724 52.25238228 C15.09673121 53.81177639 15.10035127 55.3711694 15.10573006 56.93055534 C15.11294262 59.10729162 15.11399085 61.28394714 15.11352539 63.46069336 C15.115746 64.70201523 15.11796661 65.9433371 15.12025452 67.22227478 C15 70 15 70 14 71 C9.38 71 4.76 71 0 71 C0 47.57 0 24.14 0 0 Z " fill="#000000" transform="translate(136,210)"/>
<path d="M0 0 C1.27875 0.00257813 2.5575 0.00515625 3.875 0.0078125 C5.15375 0.00523437 6.4325 0.00265625 7.75 0 C10.875 0.1328125 10.875 0.1328125 11.875 1.1328125 C12.01810287 4.8019702 11.91721662 8.45996691 11.875 12.1328125 C15.835 12.1328125 19.795 12.1328125 23.875 12.1328125 C23.875 16.0928125 23.875 20.0528125 23.875 24.1328125 C19.915 24.1328125 15.955 24.1328125 11.875 24.1328125 C12.205 32.7128125 12.535 41.2928125 12.875 50.1328125 C18.34322904 51.41288261 18.34322904 51.41288261 21.625 50.5703125 C22.3675 50.4259375 23.11 50.2815625 23.875 50.1328125 C26.1879482 52.4457607 26.37080975 53.61186125 27 56.7578125 C27.25136719 57.98371094 27.25136719 57.98371094 27.5078125 59.234375 C27.62898438 59.86085938 27.75015625 60.48734375 27.875 61.1328125 C22.2049302 64.91285903 16.53079684 64.78586783 9.875 64.1328125 C4.74807517 62.93467246 1.1812268 60.19474828 -2.125 56.1328125 C-3.83503679 51.91155364 -4.36523354 48.39640036 -4.3203125 43.859375 C-4.31064453 42.12880859 -4.31064453 42.12880859 -4.30078125 40.36328125 C-4.28402344 39.17347656 -4.26726562 37.98367187 -4.25 36.7578125 C-4.24097656 35.54480469 -4.23195313 34.33179688 -4.22265625 33.08203125 C-4.19916588 30.09875477 -4.16631682 27.11588656 -4.125 24.1328125 C-5.8265625 24.16375 -5.8265625 24.16375 -7.5625 24.1953125 C-11.125 24.1328125 -11.125 24.1328125 -12.125 23.1328125 C-12.22323937 21.46852199 -12.25473631 19.79999319 -12.25 18.1328125 C-12.25257813 17.2253125 -12.25515625 16.3178125 -12.2578125 15.3828125 C-12.125 13.1328125 -12.125 13.1328125 -11.125 12.1328125 C-8.79202567 12.09188313 -6.45794775 12.09039527 -4.125 12.1328125 C-4.13660156 11.35035156 -4.14820313 10.56789062 -4.16015625 9.76171875 C-4.16917969 8.74980469 -4.17820312 7.73789063 -4.1875 6.6953125 C-4.19910156 5.68597656 -4.21070313 4.67664063 -4.22265625 3.63671875 C-4.07736324 -0.08859415 -3.79904567 0.16145944 0 0 Z " fill="#000000" transform="translate(458.125,217.8671875)"/>
<path d="M0 0 C5.17039191 5.46584287 8.33026712 11.92169304 8.3125 19.375 C8.31636719 21.00115234 8.31636719 21.00115234 8.3203125 22.66015625 C8.1875 25.3125 8.1875 25.3125 7.1875 26.3125 C4.44855915 26.40108646 1.7349673 26.42773479 -1.00390625 26.41015625 C-1.82374496 26.4087413 -2.64358368 26.40732635 -3.48826599 26.40586853 C-6.11721382 26.40025289 -8.74607773 26.38769779 -11.375 26.375 C-13.15299357 26.36998701 -14.93098846 26.36542376 -16.70898438 26.36132812 C-21.07685545 26.35027839 -25.44466348 26.33300331 -29.8125 26.3125 C-27.20421694 31.19204339 -27.20421694 31.19204339 -22.7109375 34.05078125 C-17.22086461 35.30007028 -13.72128224 35.47669328 -8.57421875 33.1171875 C-6.37625343 32.11323882 -4.19150393 31.68421936 -1.8125 31.3125 C-0.77659662 32.38143218 0.24083942 33.46828488 1.25 34.5625 C1.81847656 35.16578125 2.38695312 35.7690625 2.97265625 36.390625 C4.1875 38.3125 4.1875 38.3125 4.03515625 40.4140625 C2.23921588 44.43630683 -1.94208574 45.94982739 -5.8125 47.5625 C-14.30738726 49.66257235 -24.03537189 49.47157286 -31.8125 45.3125 C-32.82570313 44.83683594 -32.82570313 44.83683594 -33.859375 44.3515625 C-39.89594286 41.15172766 -43.63038188 36.80351078 -45.8125 30.3125 C-47.41543192 20.77414946 -46.96362947 11.96412054 -41.3203125 3.8671875 C-40.82273437 3.35414063 -40.32515625 2.84109375 -39.8125 2.3125 C-39.1525 2.3125 -38.4925 2.3125 -37.8125 2.3125 C-37.8125 1.6525 -37.8125 0.9925 -37.8125 0.3125 C-24.95488314 -7.55951032 -12.94621807 -7.76773084 0 0 Z M-27.8125 9.3125 C-30.18230013 12.26627498 -30.18230013 12.26627498 -29.8125 16.3125 C-22.2225 16.3125 -14.6325 16.3125 -6.8125 16.3125 C-8.21166514 10.44343573 -8.21166514 10.44343573 -11.5 7.9375 C-17.57659564 4.95652855 -22.17079817 5.77003606 -27.8125 9.3125 Z " fill="#000000" transform="translate(117.8125,233.6875)"/>
<path d="M0 0 C6.13437537 3.82573948 9.37167924 9.22749945 11.25 16.0625 C11.98070817 19.42245275 12.32812502 22.55468727 12 26 C10 28 10 28 6.37646484 28.22705078 C4.82125311 28.22673357 3.26601949 28.21540299 1.7109375 28.1953125 C0.48330185 28.19106766 0.48330185 28.19106766 -0.76913452 28.18673706 C-3.38790393 28.17552532 -6.00633364 28.15041929 -8.625 28.125 C-10.39843257 28.11497147 -12.17187049 28.1058454 -13.9453125 28.09765625 C-18.29700626 28.07558278 -22.6484455 28.04104644 -27 28 C-24.0339066 32.58375334 -22.46152624 35.01346544 -17.28515625 36.66796875 C-11.43055918 37.5186367 -5.27233668 35.46042379 0 33 C5.69180566 37.23857868 5.69180566 37.23857868 7.0625 40.625 C7 43 7 43 5.796875 44.51171875 C-0.65978059 49.85951392 -9.4286573 50.71081719 -17.5 50.4453125 C-25.74591895 49.39616656 -33.1077555 46.15222372 -38.66796875 39.875 C-42.78546805 34.07910656 -44.19628963 27.04461679 -44 20 C-42.36751879 12.08874492 -38.57078424 4.88459521 -32 0 C-21.24262331 -5.5759927 -10.66851067 -5.73737129 0 0 Z M-25 12 C-26.86310322 14.60024049 -26.86310322 14.60024049 -28 17 C-26.97285339 18.2505313 -26.97285339 18.2505313 -24.77514648 18.11352539 C-23.33764038 18.10567017 -23.33764038 18.10567017 -21.87109375 18.09765625 C-20.83662109 18.09443359 -19.80214844 18.09121094 -18.73632812 18.08789062 C-17.64771484 18.07951172 -16.55910156 18.07113281 -15.4375 18.0625 C-14.34501953 18.05798828 -13.25253906 18.05347656 -12.12695312 18.04882812 C-9.41791505 18.03699826 -6.70898401 18.02051543 -4 18 C-4.6025843 13.854244 -4.6025843 13.854244 -7.4375 10.75 C-13.78503 6.41510146 -19.10342062 7.04151279 -25 12 Z " fill="#000000" transform="translate(204,232)"/>
<path d="M0 0 C1.84765625 1.0703125 1.84765625 1.0703125 3.84765625 3.0703125 C6.83068103 2.67174552 9.26468503 1.4567637 11.91015625 0.0703125 C18.24742451 -3.23820375 24.33295482 -4.17389656 31.328125 -2.24609375 C37.42410155 0.2147611 40.28678872 3.33258805 43.96435547 8.70019531 C45.34793742 12.41269216 45.0916713 16.06471915 45.04296875 19.9921875 C45.04013885 20.85217346 45.03730896 21.71215942 45.03439331 22.59820557 C45.02321775 25.33905071 44.99811804 28.07956648 44.97265625 30.8203125 C44.96262305 32.68098486 44.9534978 34.54166235 44.9453125 36.40234375 C44.92328701 40.95845982 44.88877522 45.51433036 44.84765625 50.0703125 C42.53521833 50.09716662 40.22269355 50.11664091 37.91015625 50.1328125 C35.97849609 50.15021484 35.97849609 50.15021484 34.0078125 50.16796875 C30.84765625 50.0703125 30.84765625 50.0703125 29.84765625 49.0703125 C29.71324896 46.91147811 29.64398599 44.74853582 29.6015625 42.5859375 C29.56860388 41.24478564 29.5353926 39.90363996 29.50195312 38.5625 C29.45467512 36.4450335 29.41029177 34.32758838 29.37084961 32.20996094 C29.33092567 30.16834163 29.27941034 28.12725757 29.2265625 26.0859375 C29.20150635 24.86165039 29.1764502 23.63736328 29.15063477 22.37597656 C28.75223812 18.02924768 27.95173961 15.17439586 24.84765625 12.0703125 C20.84057186 11.47466482 17.07228084 11.47370052 13.41015625 13.2578125 C9.82632162 17.41506067 9.56960454 21.79400467 9.43359375 27.12109375 C9.4142276 27.77990036 9.39486145 28.43870697 9.37490845 29.11747742 C9.31549684 31.20579393 9.26888334 33.29416674 9.22265625 35.3828125 C9.18444093 36.80536155 9.14538716 38.22788834 9.10546875 39.65039062 C9.00982829 43.12349324 8.92565652 46.59676382 8.84765625 50.0703125 C6.53521833 50.09716662 4.22269355 50.11664091 1.91015625 50.1328125 C0.62238281 50.14441406 -0.66539062 50.15601563 -1.9921875 50.16796875 C-5.15234375 50.0703125 -5.15234375 50.0703125 -6.15234375 49.0703125 C-6.2865656 47.08095968 -6.35597252 45.08717341 -6.3984375 43.09375 C-6.43130859 41.86527344 -6.46417969 40.63679688 -6.49804688 39.37109375 C-6.55869497 36.77742006 -6.61604814 34.18366699 -6.66992188 31.58984375 C-6.47852443 21.01673944 -6.47852443 21.01673944 -11.15234375 12.0703125 C-15.15942814 11.47466482 -18.92771916 11.47370052 -22.58984375 13.2578125 C-26.17367838 17.41506067 -26.43039546 21.79400467 -26.56640625 27.12109375 C-26.5857724 27.77990036 -26.60513855 28.43870697 -26.62509155 29.11747742 C-26.68450316 31.20579393 -26.73111666 33.29416674 -26.77734375 35.3828125 C-26.81555907 36.80536155 -26.85461284 38.22788834 -26.89453125 39.65039062 C-26.99017171 43.12349324 -27.07434348 46.59676382 -27.15234375 50.0703125 C-29.46478167 50.09716662 -31.77730645 50.11664091 -34.08984375 50.1328125 C-35.37761719 50.14441406 -36.66539062 50.15601563 -37.9921875 50.16796875 C-41.15234375 50.0703125 -41.15234375 50.0703125 -42.15234375 49.0703125 C-42.25081342 47.51032202 -42.28032993 45.94590706 -42.28173828 44.3828125 C-42.28489044 43.38507813 -42.2880426 42.38734375 -42.29129028 41.359375 C-42.28926605 40.27398437 -42.28724182 39.18859375 -42.28515625 38.0703125 C-42.28611298 36.96429688 -42.2870697 35.85828125 -42.28805542 34.71875 C-42.28873742 32.37499942 -42.28688179 30.03124697 -42.28271484 27.6875 C-42.27736689 24.08589462 -42.28265922 20.48441397 -42.2890625 16.8828125 C-42.28840172 14.61197889 -42.28712057 12.34114536 -42.28515625 10.0703125 C-42.28718048 8.98492187 -42.28920471 7.89953125 -42.29129028 6.78125 C-42.28813812 5.78351563 -42.28498596 4.78578125 -42.28173828 3.7578125 C-42.28094269 2.87480469 -42.28014709 1.99179688 -42.27932739 1.08203125 C-42.15234375 -0.9296875 -42.15234375 -0.9296875 -41.15234375 -1.9296875 C-38.96594922 -2.00227696 -36.77733986 -2.01342533 -34.58984375 -1.9921875 C-32.79353516 -1.97865234 -32.79353516 -1.97865234 -30.9609375 -1.96484375 C-30.03410156 -1.95324219 -29.10726562 -1.94164062 -28.15234375 -1.9296875 C-27.82234375 -0.6096875 -27.49234375 0.7103125 -27.15234375 2.0703125 C-26.60964844 1.79316406 -26.06695312 1.51601562 -25.5078125 1.23046875 C-24.79238281 0.86824219 -24.07695312 0.50601563 -23.33984375 0.1328125 C-22.63214844 -0.22683594 -21.92445313 -0.58648437 -21.1953125 -0.95703125 C-13.76858083 -4.49289394 -7.22226258 -3.43917265 0 0 Z " fill="#000000" transform="translate(267.15234375,230.9296875)"/>
<path d="M0 0 C5.26779628 3.3321463 10.05275341 8.61250112 12.328125 14.47265625 C12.8125 17.63671875 12.8125 17.63671875 13.078125 21.09765625 C13.17609375 22.24492187 13.2740625 23.3921875 13.375 24.57421875 C13.328125 27.47265625 13.328125 27.47265625 11.328125 29.47265625 C8.53127703 29.6479068 5.8348442 29.70408814 3.0390625 29.66796875 C1.81142685 29.66372391 1.81142685 29.66372391 0.55899048 29.65939331 C-2.05977893 29.64818157 -4.67820864 29.62307554 -7.296875 29.59765625 C-9.07030757 29.58762772 -10.84374549 29.57850165 -12.6171875 29.5703125 C-16.96888126 29.54823903 -21.3203205 29.51370269 -25.671875 29.47265625 C-22.65968752 34.91058762 -19.76406075 36.51064291 -13.859375 38.34765625 C-10.05762199 38.4967446 -7.34975388 37.58680727 -3.8203125 36.26171875 C0.27828751 34.75641475 0.27828751 34.75641475 2.328125 34.47265625 C5.49180664 37.10905761 7.7685985 39.64472757 9.328125 43.47265625 C5.6806409 48.11490874 0.91776113 50.06627797 -4.671875 51.47265625 C-15.57137458 52.6433866 -24.76289704 51.50522151 -33.546875 44.72265625 C-38.18543575 40.42323555 -41.33172663 34.18640734 -41.91015625 27.87109375 C-42.12737628 19.02223548 -40.33977495 13.55297382 -35.546875 6.22265625 C-25.97366623 -2.93432605 -12.1186233 -5.45338049 0 0 Z M-21.671875 11.47265625 C-21.671875 12.13265625 -21.671875 12.79265625 -21.671875 13.47265625 C-22.331875 13.47265625 -22.991875 13.47265625 -23.671875 13.47265625 C-25.9492251 16.28775618 -25.9492251 16.28775618 -25.671875 19.47265625 C-17.751875 19.47265625 -9.831875 19.47265625 -1.671875 19.47265625 C-3.1234011 13.82490626 -3.1234011 13.82490626 -6.921875 11.09765625 C-12.19903719 8.47002362 -16.40577237 8.99449031 -21.671875 11.47265625 Z " fill="#000000" transform="translate(363.671875,230.52734375)"/>
<path d="M0 0 C5.11078897 3.24864012 7.54159427 7.63732738 9.36181641 13.30004883 C10.56429774 19.11492557 10.33601206 25.06414991 10.25390625 30.97705078 C10.22234574 33.2765298 10.21288657 35.57532439 10.20703125 37.875 C10.19787549 39.33464387 10.18750432 40.79428074 10.17578125 42.25390625 C10.16940643 43.28656616 10.16940643 43.28656616 10.16290283 44.34008789 C10.08993597 49.13662653 10.08993597 49.13662653 8.97265625 50.25390625 C6.6410557 50.35299927 4.30635683 50.38361129 1.97265625 50.37890625 C0.69390625 50.38148438 -0.58484375 50.3840625 -1.90234375 50.38671875 C-5.02734375 50.25390625 -5.02734375 50.25390625 -6.02734375 49.25390625 C-6.14958519 47.02176994 -6.20716454 44.78604572 -6.23828125 42.55078125 C-6.2663652 41.16405101 -6.29502975 39.77733242 -6.32421875 38.390625 C-6.36538112 36.20068883 -6.40225847 34.01096672 -6.42871094 31.82080078 C-6.45643461 29.70949989 -6.5023204 27.5991947 -6.55078125 25.48828125 C-6.58051025 23.58900879 -6.58051025 23.58900879 -6.61083984 21.65136719 C-7.05260132 18.04787791 -7.85372878 16.12943851 -10.02734375 13.25390625 C-13.49730607 11.51892509 -17.2424157 11.64596444 -21.02734375 12.25390625 C-24.05143739 14.52517959 -24.05143739 14.52517959 -26.02734375 17.25390625 C-26.35734375 17.58390625 -26.68734375 17.91390625 -27.02734375 18.25390625 C-27.17399981 20.53236683 -27.2548734 22.81511277 -27.30859375 25.09765625 C-27.32700317 25.78194702 -27.3454126 26.46623779 -27.36437988 27.17126465 C-27.42329514 29.36538884 -27.47604559 31.55959151 -27.52734375 33.75390625 C-27.59480236 36.63949559 -27.66846988 39.5248245 -27.74609375 42.41015625 C-27.7915332 44.34084961 -27.7915332 44.34084961 -27.83789062 46.31054688 C-28.02734375 49.25390625 -28.02734375 49.25390625 -29.02734375 50.25390625 C-31.3589443 50.35299927 -33.69364317 50.38361129 -36.02734375 50.37890625 C-37.30609375 50.38148438 -38.58484375 50.3840625 -39.90234375 50.38671875 C-43.02734375 50.25390625 -43.02734375 50.25390625 -44.02734375 49.25390625 C-44.12581342 47.69391577 -44.15532993 46.12950081 -44.15673828 44.56640625 C-44.15989044 43.56867188 -44.1630426 42.5709375 -44.16629028 41.54296875 C-44.16426605 40.45757812 -44.16224182 39.3721875 -44.16015625 38.25390625 C-44.16111298 37.14789063 -44.1620697 36.041875 -44.16305542 34.90234375 C-44.16373742 32.55859317 -44.16188179 30.21484072 -44.15771484 27.87109375 C-44.15236689 24.26948837 -44.15765922 20.66800772 -44.1640625 17.06640625 C-44.16340172 14.79557264 -44.16212057 12.52473911 -44.16015625 10.25390625 C-44.16218048 9.16851562 -44.16420471 8.083125 -44.16629028 6.96484375 C-44.16313812 5.96710938 -44.15998596 4.969375 -44.15673828 3.94140625 C-44.15594269 3.05839844 -44.15514709 2.17539063 -44.15432739 1.265625 C-44.02734375 -0.74609375 -44.02734375 -0.74609375 -43.02734375 -1.74609375 C-40.90614451 -1.89802538 -38.7787906 -1.96792889 -36.65234375 -1.99609375 C-35.48960937 -2.021875 -34.326875 -2.04765625 -33.12890625 -2.07421875 C-30.02734375 -1.74609375 -30.02734375 -1.74609375 -28.11328125 -0.23046875 C-27.57574219 0.50429687 -27.57574219 0.50429687 -27.02734375 1.25390625 C-26.42148437 0.96515625 -25.815625 0.67640625 -25.19140625 0.37890625 C-16.35371346 -3.53687148 -8.82660951 -4.46779 0 0 Z " fill="#000000" transform="translate(430.02734375,230.74609375)"/>
<path d="M0 0 C5.50919815 3.41753163 8.90297376 8.20258308 11.25 14.1875 C13.34853145 24.85503486 11.76610525 32.24007433 5.875 41.25 C-1.33966424 48.15098318 -9.76837194 50.38874906 -19.51171875 50.26953125 C-28.13936159 49.60289367 -34.60800847 46.56382293 -40.41015625 40.1328125 C-44.76352096 34.29267213 -46.20125127 27.22268462 -46 20 C-44.24005934 11.47105681 -40.27950236 4.84857365 -33 0 C-21.79126872 -5.65658023 -11.22750351 -5.5061399 0 0 Z M-27.37109375 13.6640625 C-30.35225624 18.84241396 -30.50832776 23.28365637 -29 29 C-27.59552757 32.40030168 -26.40208393 33.70579225 -23.4375 35.875 C-18.73259679 37.41478651 -14.75040276 37.45679018 -10 36 C-7.20766486 33.81690162 -5.58373475 31.1674695 -4 28 C-3.45682427 23.0490868 -3.47758051 19.10511815 -5.625 14.5625 C-8.83024291 11.1042116 -11.75516027 9.34535996 -16.4375 8.625 C-20.75158817 9.25632998 -24.49492659 10.17332971 -27.37109375 13.6640625 Z " fill="#000000" transform="translate(576,232)"/>
<path d="M0 0 C4.95637575 2.47818787 7.72729224 5.5749383 10.30419922 10.51635742 C11.5187535 14.44704181 11.43522468 18.08642942 11.3828125 22.17578125 C11.3799826 23.01215622 11.37715271 23.84853119 11.37423706 24.71025085 C11.3630832 27.36948226 11.33798763 30.02837118 11.3125 32.6875 C11.30246399 34.49543783 11.29333923 36.30338096 11.28515625 38.11132812 C11.26315959 42.53268312 11.22866294 46.95378358 11.1875 51.375 C8.87506208 51.40185412 6.5625373 51.42132841 4.25 51.4375 C2.96222656 51.44910156 1.67445313 51.46070313 0.34765625 51.47265625 C-2.8125 51.375 -2.8125 51.375 -3.8125 50.375 C-3.94681856 48.30090235 -4.01615041 46.22254018 -4.05859375 44.14453125 C-4.09146484 42.86642578 -4.12433594 41.58832031 -4.15820312 40.27148438 C-4.20540794 38.23531826 -4.2497734 36.19917177 -4.28930664 34.1628418 C-4.32934217 32.19822415 -4.38135614 30.23386232 -4.43359375 28.26953125 C-4.4586499 27.09237549 -4.48370605 25.91521973 -4.50952148 24.70239258 C-4.82282028 21.26165983 -5.44313626 18.54490327 -6.8125 15.375 C-10.85331202 12.68112532 -14.06839306 12.71632786 -18.8125 13.375 C-22.28480721 15.22197192 -23.47142025 16.50457425 -24.90234375 20.15625 C-26.46999369 26.05513896 -26.28490524 32.25003742 -26.4375 38.3125 C-26.49550781 40.19678711 -26.49550781 40.19678711 -26.5546875 42.11914062 C-26.64853217 45.20428426 -26.73422316 48.28942865 -26.8125 51.375 C-29.12493792 51.40185412 -31.4374627 51.42132841 -33.75 51.4375 C-35.03777344 51.44910156 -36.32554687 51.46070313 -37.65234375 51.47265625 C-40.8125 51.375 -40.8125 51.375 -41.8125 50.375 C-41.91096967 48.81500952 -41.94048618 47.25059456 -41.94189453 45.6875 C-41.94504669 44.68976563 -41.94819885 43.69203125 -41.95144653 42.6640625 C-41.9494223 41.57867187 -41.94739807 40.49328125 -41.9453125 39.375 C-41.94626923 38.26898438 -41.94722595 37.16296875 -41.94821167 36.0234375 C-41.94889367 33.67968692 -41.94703804 31.33593447 -41.94287109 28.9921875 C-41.93752314 25.39058212 -41.94281547 21.78910147 -41.94921875 18.1875 C-41.94855797 15.91666639 -41.94727682 13.64583286 -41.9453125 11.375 C-41.94733673 10.28960937 -41.94936096 9.20421875 -41.95144653 8.0859375 C-41.94829437 7.08820313 -41.94514221 6.09046875 -41.94189453 5.0625 C-41.94109894 4.17949219 -41.94030334 3.29648438 -41.93948364 2.38671875 C-41.8125 0.375 -41.8125 0.375 -40.8125 -0.625 C-38.62610547 -0.69758946 -36.43749611 -0.70873783 -34.25 -0.6875 C-32.45369141 -0.67396484 -32.45369141 -0.67396484 -30.62109375 -0.66015625 C-29.69425781 -0.64855469 -28.76742187 -0.63695312 -27.8125 -0.625 C-27.4825 0.695 -27.1525 2.015 -26.8125 3.375 C-26.06226563 3.0140625 -25.31203125 2.653125 -24.5390625 2.28125 C-15.89835083 -1.63645303 -9.06238862 -3.54420149 0 0 Z " fill="#000000" transform="translate(638.8125,229.625)"/>
<path d="M0 0 C0 4.29 0 8.58 0 13 C-1.216875 13.268125 -2.43375 13.53625 -3.6875 13.8125 C-8.7418396 15.0827942 -12.0450461 16.56756915 -15 21 C-15.35360842 24.1838845 -15.35360842 24.1838845 -15.37890625 27.8203125 C-15.39590073 28.47957733 -15.4128952 29.13884216 -15.43040466 29.81808472 C-15.48346652 31.920293 -15.52381367 34.02248185 -15.5625 36.125 C-15.60639921 38.23456102 -15.65304409 40.34396783 -15.70530701 42.45333862 C-15.75187712 44.36214314 -15.78935386 46.27116298 -15.82641602 48.18017578 C-16 51 -16 51 -17 52 C-19.33160055 52.09909302 -21.66629942 52.12970504 -24 52.125 C-25.27875 52.12757813 -26.5575 52.13015625 -27.875 52.1328125 C-31 52 -31 52 -32 51 C-32.09846967 49.44000952 -32.12798618 47.87559456 -32.12939453 46.3125 C-32.13254669 45.31476563 -32.13569885 44.31703125 -32.13894653 43.2890625 C-32.1369223 42.20367187 -32.13489807 41.11828125 -32.1328125 40 C-32.13376923 38.89398438 -32.13472595 37.78796875 -32.13571167 36.6484375 C-32.13639367 34.30468692 -32.13453804 31.96093447 -32.13037109 29.6171875 C-32.12502314 26.01558212 -32.13031547 22.41410147 -32.13671875 18.8125 C-32.13605797 16.54166639 -32.13477682 14.27083286 -32.1328125 12 C-32.13483673 10.91460937 -32.13686096 9.82921875 -32.13894653 8.7109375 C-32.13579437 7.71320313 -32.13264221 6.71546875 -32.12939453 5.6875 C-32.12859894 4.80449219 -32.12780334 3.92148438 -32.12698364 3.01171875 C-32 1 -32 1 -31 0 C-28.81360547 -0.07258946 -26.62499611 -0.08373783 -24.4375 -0.0625 C-22.64119141 -0.04896484 -22.64119141 -0.04896484 -20.80859375 -0.03515625 C-19.88175781 -0.02355469 -18.95492188 -0.01195312 -18 0 C-17.67 1.32 -17.34 2.64 -17 4 C-16.19175781 3.62746094 -15.38351562 3.25492188 -14.55078125 2.87109375 C-13.48214844 2.39800781 -12.41351562 1.92492187 -11.3125 1.4375 C-10.25675781 0.96183594 -9.20101562 0.48617187 -8.11328125 -0.00390625 C-5 -1 -5 -1 0 0 Z " fill="#000000" transform="translate(526,229)"/>
</svg>
