<svg width="24" height="24" viewBox="0 0 24 24" fill="none" xmlns="http://www.w3.org/2000/svg">
    <path
        d="M16.5 2.25098C14.0244 2.25098 12 4.27539 12 6.75098C12 7.49512 12.2871 8.25391 12.6562 9.09473C13.0254 9.93555 13.4912 10.8262 13.9688 11.6494C14.9238 13.2959 15.8906 14.6729 15.8906 14.6729L16.5 15.5635L17.1094 14.6729C17.1094 14.6729 18.0762 13.2959 19.0312 11.6494C19.5088 10.8262 19.9746 9.93555 20.3438 9.09473C20.7129 8.25391 21 7.49512 21 6.75098C21 4.27539 18.9756 2.25098 16.5 2.25098ZM8.97656 3.7041L3 6.25879V20.6494L9.02344 18.0479L15.0234 20.2979L21 17.7432V11.2041C20.5225 12.1211 19.9922 13 19.5 13.7822V16.7588L15.75 18.3525V17.1338L14.6484 15.54C14.5312 15.3701 14.3936 15.168 14.25 14.9541V18.4229L9.75 16.7354V5.5791L10.5703 5.88379C10.6436 5.37695 10.7754 4.8877 10.9688 4.43066L8.97656 3.7041ZM16.5 3.75098C18.1641 3.75098 19.5 5.08691 19.5 6.75098C19.5 7.04102 19.3184 7.72656 18.9844 8.48535C18.6504 9.24414 18.1787 10.1055 17.7188 10.8994C17.1064 11.9541 16.8428 12.3291 16.5 12.8447C16.1572 12.3291 15.8936 11.9541 15.2812 10.8994C14.8213 10.1055 14.3496 9.24414 14.0156 8.48535C13.6816 7.72656 13.5 7.04102 13.5 6.75098C13.5 5.08691 14.8359 3.75098 16.5 3.75098ZM8.25 5.62598V16.7588L4.5 18.3525V7.24316L8.25 5.62598ZM16.5 5.62598C15.8789 5.62598 15.375 6.12988 15.375 6.75098C15.375 7.37207 15.8789 7.87598 16.5 7.87598C17.1211 7.87598 17.625 7.37207 17.625 6.75098C17.625 6.12988 17.1211 5.62598 16.5 5.62598Z"
        fill="black" />
</svg>