<svg width="24" height="24" viewBox="0 0 24 24" fill="none" xmlns="http://www.w3.org/2000/svg">
    <path
        d="M12 4.50098C9.17578 4.50098 6.67969 4.79395 5.15625 5.0166C3.89648 5.20117 2.87988 6.15039 2.64844 7.40723C2.45215 8.47656 2.25 10.041 2.25 12.001C2.25 13.9609 2.45215 15.5254 2.64844 16.5947C2.87988 17.8516 3.89648 18.8037 5.15625 18.9854C6.68555 19.208 9.19043 19.501 12 19.501C14.8096 19.501 17.3145 19.208 18.8438 18.9854C20.1035 18.8037 21.1201 17.8516 21.3516 16.5947C21.5479 15.5225 21.75 13.9551 21.75 12.001C21.75 10.0469 21.5508 8.47949 21.3516 7.40723C21.1201 6.15039 20.1035 5.20117 18.8438 5.0166C17.3203 4.79395 14.8242 4.50098 12 4.50098ZM12 6.00098C14.7246 6.00098 17.1592 6.2793 18.6328 6.49316C19.2656 6.58691 19.7607 7.06445 19.875 7.68848C20.0566 8.67871 20.25 10.1465 20.25 12.001C20.25 13.8525 20.0566 15.3232 19.875 16.3135C19.7607 16.9375 19.2686 17.418 18.6328 17.5088C17.1533 17.7227 14.707 18.001 12 18.001C9.29297 18.001 6.84375 17.7227 5.36719 17.5088C4.73438 17.418 4.23926 16.9375 4.125 16.3135C3.94336 15.3232 3.75 13.8584 3.75 12.001C3.75 10.1406 3.94336 8.67871 4.125 7.68848C4.23926 7.06445 4.73145 6.58691 5.36719 6.49316C6.83789 6.2793 9.27539 6.00098 12 6.00098ZM9.75 7.71191V16.29L10.875 15.6572L16.125 12.6572L17.25 12.001L16.125 11.3447L10.875 8.34473L9.75 7.71191ZM11.25 10.29L14.2266 12.001L11.25 13.7119V10.29Z"
        fill="black" />
</svg>
    